<svg width="554" height="130" viewBox="0 0 554 130" fill="none" xmlns="http://www.w3.org/2000/svg">
  <circle cx="339.5" cy="87.5" r="3" stroke="#12b591"/>
  <circle cx="401" cy="29" r="4.5" stroke="#12b591"/>
  <circle cx="58.5" cy="37.5" r="1" stroke="#12b591"/>
  <circle cx="479.5" cy="73.5" r="1" stroke="#12b591"/>
  <circle cx="220.5" cy="74.5" r="2" stroke="#12b591"/>
  <circle cx="551.5" cy="127.5" r="2" stroke="#12b591"/>
  <circle cx="2.5" cy="110.5" r="2" stroke="#12b591"/>
  <path d="M158.5 18.618L159.708 22.3369L159.821 22.6824H160.184H164.094L160.931 24.9807L160.637 25.1943L160.749 25.5398L161.957 29.2586L158.794 26.9602L158.5 26.7467L158.206 26.9602L155.043 29.2586L156.251 25.5398L156.363 25.1943L156.069 24.9807L152.906 22.6824H156.816H157.179L157.292 22.3369L158.5 18.618Z" stroke="#12b591"/>
  <path d="M502.5 18.618L503.484 21.6459L503.596 21.9914H503.959H507.143L504.567 23.8627L504.273 24.0762L504.386 24.4217L505.37 27.4496L502.794 25.5783L502.5 25.3647L502.206 25.5783L499.63 27.4496L500.614 24.4217L500.727 24.0762L500.433 23.8627L497.857 21.9914H501.041H501.404L501.516 21.6459L502.5 18.618Z" stroke="#12b591"/>
  <path d="M305 1.61803L305.647 3.60942L305.759 3.95492H306.123H308.216L306.522 5.18566L306.229 5.39919L306.341 5.74468L306.988 7.73607L305.294 6.50532L305 6.2918L304.706 6.50532L303.012 7.73607L303.659 5.74468L303.771 5.39919L303.478 5.18566L301.784 3.95492H303.877H304.241L304.353 3.60942L305 1.61803Z" stroke="#12b591"/>
</svg>
