<svg xmlns="http://www.w3.org/2000/svg" xmlns:xlink="http://www.w3.org/1999/xlink" viewBox="1 74.1 409.3463 464.2176"><g transform="translate(-100.017)"><defs><path id="a" d="M332.9 492.1c0 24.2 52.4 20.2 45.4 28.5-1 1.3-3.6 4.3-13.3 3.6-7.6-.3-26.9-10.6-33.5-11.3-15.6-1.3-36.5 20.6-53 24.5-13.3 2-19.9.7-19.2-3.6 1-6.3 31.8-5.3 35.5-26.9-6.6 3.6-30.8 9.9-33.5 3.3-5.6-13.6 39.5.7 30.8-28.8"/></defs><use xlink:href="#a" overflow="visible" width="609.3" height="628.6" fill="#251d12"/></g><g transform="translate(-100.017)"><defs><path id="b" d="M312.3 417.9c13.9 0 28.5-7 27.8 15.6-1 24.5 2 46.1 2.3 57 0 24.2 43.1 19.9 36.1 28.2-1 1.3-3.6 4.3-13.3 3.6-7.6-.3-26.9-9.6-33.5-10.3-15.6-1.3-36.5 19.6-53 23.9-13.3 2-19.9.7-19.2-3.6 1-6.3 31.8-5.3 35.5-26.9-6.6 3.6-30.8 9.9-33.5 3.3-4.3-10.6 16.9-5.6 21.2-15.9 3-7.3.3-29.2.3-64.3-.5-10 5.1-10.6 29.3-10.6z"/></defs><use xlink:href="#b" overflow="visible" width="609.3" height="628.6" fill="#312716"/></g><path d="M72.083 374.1c10.9 0 16.6 9.9 15.6 22.2-1.3 16.6-6.3 22.5-14.9 22.5-11.6-.3-13.3-9.9-13.3-22.5-.4-12.2 3.9-22.2 12.6-22.2zM109.483 392c10.9 0 16.6 7.6 15.9 19.9-1.3 16.6-6.3 25.2-14.9 24.9-7 0-13.3-11.3-13.3-22.5-.3-9.7.7-22.3 12.3-22.3zM169.183 120.5c11.6 0 17.2-10.6 15.6-23.2-2.3-16.9-8-23.2-16.9-23.2-12.3.3-13.6 10.3-13.3 23.2.3 12.9 5.6 23.2 14.6 23.2zM100.183 149.3c-11.9 0-17.9-10.6-16.9-23.5 1.3-17.2 7-23.5 15.9-23.2 12.6.3 14.3 10.3 14.6 23.2.3 12.9-4.3 23.5-13.6 23.5zM18.383 298.9c-11.9 0-18.6-8.3-17.2-21.9 1.7-17.9 7.6-27.2 16.9-27.2 7.6 0 14.3 12.3 14.6 24.2-.1 10.9-1.4 24.9-14.3 24.9zM134.083 125.8c10.3 0 15.3-8.3 13.9-18.6-1.7-13.6-7-18.6-14.9-18.6-10.9.3-11.9 8.6-11.9 18.6.3 10.3 4.9 18.6 12.9 18.6zM151.983 456.3c10.3 0 15.3-7.6 13.9-20.2-2-16.6-7.3-25.2-15.3-24.9-6.6 0-11.9 11.3-11.6 22.5.4 9.7 1.7 22.6 13 22.6zM40.583 358.9c-8-.3-12.6 4.6-11.9 12.6 1 10.9 4.6 16.9 10.9 17.2 5.3 0 9.9-7 9.9-14.6.7-6.3 0-14.9-8.9-15.2zM350.183 148.3c10.6 0 16.2 9.6 15.9 20.9-.7 15.6-5.3 21.2-13.6 21.2-11.3-.3-12.9-9.6-13.6-21.2-1-11.2 3-20.9 11.3-20.9zM203.983 76.1c10.3 0 15.9 7 15.3 18.2-1 15.3-6 23.2-13.9 22.9-6.6 0-12.9-10.3-13.3-20.6 0-8.9.6-20.5 11.9-20.5zM182.483 219.3c11.9 0 17.2-10.9 15.6-23.9-2.3-17.6-8-23.9-17.2-23.9-12.3.3-13.6 10.6-13.3 23.9.6 13.3 5.6 23.9 14.9 23.9zM142.683 176.5c10.6 0 16.2 7 15.3 18.2-1 15.3-6.3 22.9-14.3 22.9-6.6 0-12.9-10.3-13.3-20.6 0-8.9 1-20.5 12.3-20.5zM380.083 227.3c9.9 0 14.6-7.3 12.9-18.9-2.3-15.6-7.6-23.5-15.3-23.5-6.3 0-11.3 10.6-10.6 21.2.4 8.9 2.3 21.2 13 21.2zM319.683 160.3c-11.3-.3-16.9-11.3-15.9-24.2 1.3-17.2 6.6-23.2 15.3-22.9 11.6.7 13.3 10.9 13.6 23.9.3 13.2-4.4 23.5-13 23.2zM362.083 256.4c-9-.3-13.3 5-12.3 13.6 1.3 11.9 6 17.9 12.9 18.2 5.6 0 10.3-7.6 10.3-15.6-.2-6.6-1.6-15.8-10.9-16.2zM247.783 263.7c-9-.3-13.3 4.3-12.6 11.9 1.3 10.3 5.6 15.9 12.3 15.9 5.6 0 10.6-6.6 10.6-13.6.3-5.9-.7-13.8-10.3-14.2zM19.983 350.9c9.9.3 15.3-8.6 14.6-19.6-1-14.9-5.6-20.6-13.3-20.9-10.6-.3-12.3 8.6-12.6 19.6-.3 11.3 3.7 20.6 11.3 20.9zM349.583 294.2c11.9 0 18.9 8.3 18.2 21.9-.7 18.2-6.3 27.8-15.6 27.5-7.6 0-15.3-12.3-15.9-24.9-.7-10.6 0-24.5 13.3-24.5zM393.283 280c11.6 0 16.6-9.9 14.9-21.5-2.7-15.9-8.6-21.5-17.2-21.5-12.3.3-13.3 9.6-12.3 21.5.4 11.9 5.7 21.5 14.6 21.5zM273.283 458c12.3-.7 17.6-12.3 15.3-26.2-3.3-18.6-9.6-25.2-19.2-24.5-12.9.7-13.6 11.9-12.6 25.9.9 13.9 6.9 25.1 16.5 24.8zM351.883 404.6c12.3-.7 17.9-9.3 15.3-23.2-3.3-18.2-10.3-27.5-19.6-27.2-7.6.3-13.3 12.9-12.3 25.5.7 11.3 3.3 25.6 16.6 24.9zM380.683 343.6c8.6-.3 13.6 4.6 13.3 12.6-.3 10.9-4 16.9-10.6 16.9-5.6 0-10.9-7-11.6-14.6-.7-6.3-.4-14.5 8.9-14.9zM399.283 331c-10.6.3-16.9-8.6-16.6-19.6 0-14.9 4.6-20.6 12.9-20.6 11.3-.3 13.6 8.6 14.6 19.6 1 11.3-2.6 20.3-10.9 20.6zM318.683 431.1c-12.3.7-18.9-6.3-18.6-17.9.3-15.3 5.6-23.5 15.3-23.9 7.6-.3 15.3 9.9 16.2 20.2.4 9.4 0 21.3-12.9 21.6zM316.683 283.6c9 0 13.9 7.3 13.6 19.6-.3 16.2-4.6 24.5-11.3 24.2-5.6 0-11.3-10.9-11.6-21.9-.9-9.3-.3-21.9 9.3-21.9zM277.883 98.6c11.6 0 17.9 9.6 17.2 21.2-1 15.6-6.3 21.5-15.3 21.2-12.3-.3-14.3-9.6-14.9-21.2-.2-11.9 4.1-21.2 13-21.2zM77.383 166.3c-10.9-1-17.2 9.9-16.9 23.9.3 18.6 5 25.9 13.6 26.5 11.6.7 13.9-10.3 14.9-24.2.6-14-3.3-25.6-11.6-26.2zM35.283 156.3c-10.9 0-16.6 8.3-15.6 21.5 1.7 17.9 7.3 27.2 15.9 27.2 7 0 13.3-12.3 12.9-24.5 0-10.3-1.3-24.2-13.2-24.2zM348.583 210c10.6 0 16.2 9 15.6 20.2-.7 14.9-5.3 20.2-13.6 20.2-11.3-.3-12.9-9-13.6-20.2-.4-11.2 3.6-20.2 11.6-20.2zM60.783 121.8c11.6 0 17.9 6.6 16.6 17.6-1.3 14.6-7.3 22.2-16.2 22.2-7.6 0-13.9-9.9-14.3-19.9.3-8.6 1.3-19.9 13.9-19.9zM238.183 402.6c10.9 0 15.9-10.3 14.3-22.9-2.3-16.9-7.6-22.9-15.9-22.9-11.3.3-12.6 10.3-11.9 22.9.2 12.7 5.2 22.9 13.5 22.9zM165.883 402.6c10.9 0 16.2-8 14.6-20.2-2-16.9-7.6-25.5-15.9-25.2-7 0-12.6 11.3-12.3 22.9.3 9.6 2 22.5 13.6 22.5zM202.983 409.9c-9.6 0-14.6-9.3-13.9-20.6 1-14.9 5.3-20.6 12.6-20.6 10.3.3 11.6 9.3 11.9 20.6.7 11.3-3 20.6-10.6 20.6zM279.583 393c-11.9 0-18.6-9-17.9-22.9 1-18.9 6.6-28.5 15.9-28.5 7.6 0 14.9 12.9 15.6 25.5 0 11-.7 25.9-13.6 25.9zM89.583 375.4c11.3 0 16.6-11.6 15.3-25.5-2-18.6-7.3-25.5-15.9-25.2-11.6.3-12.9 11.3-12.9 25.2.3 13.9 4.9 25.5 13.5 25.5zM48.183 257.1c10.9 0 16.6-7.6 15.3-19.9-1.7-16.6-7.3-24.9-15.6-24.9-7 0-12.9 11.3-12.6 22.2-.4 9.7 1 22.6 12.9 22.6zM251.383 145c8.3 0 12.9 5 12.3 12.9-.7 10.6-4.6 16.2-11.3 15.9-5.3 0-10.3-7.3-10.6-14.6 0-6.2.7-14.2 9.6-14.2zM288.583 202.1c-10.6 0-16.2-10.6-15.6-23.2.7-16.9 5.6-23.2 13.6-22.9 10.9.3 12.9 10.3 13.6 22.9.3 12.9-3.4 23.2-11.6 23.2zM143.983 168.9c-11.6 0-17.9-6.6-16.9-17.2 1.3-14.3 7-21.5 15.9-21.5 7.3 0 14.3 9.6 14.3 19.2.6 8.6-.7 19.5-13.3 19.5zM127.783 386.7c10.9.7 16.9-8 15.9-22.2-1.3-18.9-6.6-28.8-15.3-28.8-7-.3-13.3 11.9-13.3 24.9-.3 11.2 1.1 25.8 12.7 26.1zM243.083 131.4c-10.9-.3-16.9-9-15.6-21.9 1.7-17.6 7-26.2 15.6-25.9 7 .3 13.3 12.6 13.3 24.2 0 10.7-1.3 24.3-13.3 23.6zM250.783 297.5c-11.9 0-17.6 11.3-15.9 24.5 2.3 18.2 8.3 24.9 17.6 24.9 12.6-.3 13.9-11.3 13.3-24.9-.5-13.5-6.1-24.5-15-24.5z" fill="#0db591"/><path d="M320.383 227.9c11.9 0 18.6 10.9 17.9 24.2-.7 17.9-6.3 24.5-15.6 24.2-12.6-.3-14.9-10.9-15.6-24.2-.3-13.2 4.3-24.2 13.3-24.2zM286.183 289.6c-10.6 0-15.6 9-13.9 20.2 2 14.9 7.6 20.2 15.6 20.2 11.3-.3 12.3-9 11.6-20.2 0-11.3-5-20.2-13.3-20.2zM214.983 349.9c-10.9 0-16.6-6.3-15.9-16.6 1-13.6 6.3-20.9 14.6-20.6 7 0 13.3 9.3 13.6 18.6.2 8-.7 18.6-12.3 18.6zM84.683 225.9c9.9.3 14.9 10.3 13.6 22.2-1.7 15.9-6.6 21.5-14.3 20.9-10.6-.7-11.6-10.3-11.6-22.2.3-11.9 4.6-21.2 12.3-20.9zM117.183 325.7c-9.3 0-14.3-6.6-13.3-14.9 1-10.9 5.6-14.9 12.6-14.9 9.9 0 11.3 6.6 11.6 14.9.3 8.3-3.7 14.9-10.9 14.9zM178.783 299.2c11.3.7 17.2 9.3 15.9 23.2-1.7 18.6-7.3 28.2-16.2 27.5-7.3-.3-13.6-13.3-13.3-26.2 0-10.6 1.3-24.8 13.6-24.5zM52.483 267c-8.6-.3-12.9 4.6-12.3 12.6 1 10.9 5 16.9 11.6 17.2 5.6 0 10.3-7 10.6-14.6 0-6.2-.9-14.8-9.9-15.2zM12.683 243.5c10.6.3 15.9-8.6 15.3-19.6-1-14.9-6-20.6-13.9-20.6-10.9-.3-12.6 8.6-12.9 19.6-.4 11 3.6 20.3 11.5 20.6zM53.483 347.6c10.9.7 16.9-6.3 15.9-17.9-1.3-15.3-6.6-23.5-14.9-23.9-7-.3-13.3 9.6-13.6 20.2 0 9.3 1 21.3 12.6 21.6zM311.383 377.1c10.9 0 15.9-10.3 13.9-22.9-2.3-16.6-8-22.9-16.2-22.5-11.3.3-12.3 9.9-11.9 22.5 1 12.6 5.9 22.9 14.2 22.9zM321.383 217c10.6 0 15.6-7.3 13.9-19.2-2.3-15.9-8-24.2-16.2-23.9-6.6 0-11.9 10.9-11.6 21.5.6 9 2.3 21.6 13.9 21.6zM107.183 154.6c9.9 0 15.3 7.3 14.3 19.2-1 15.9-6 24.2-13.6 23.9-6.3 0-11.9-10.9-12.3-21.5 0-9.3.7-21.6 11.6-21.6zM217.883 129.1c-10.9.4-15.9 11.6-13.9 24.9 3 17.9 8.6 24.2 17.2 23.5 11.6-.7 12.6-11.6 11.6-24.9-.9-13.2-6.2-23.8-14.9-23.5zM86.983 314.4c-8 .3-12.6-5.6-11.9-15.9.7-13.6 4.3-20.9 10.3-21.2 5-.3 9.9 8.6 10.3 17.9.6 8-.1 18.9-8.7 19.2zM178.483 126.1c11.3 0 17.2 8.6 16.2 18.9-1.3 13.9-6.6 19.2-15.3 18.9-11.9-.3-13.6-8.6-13.9-18.9-.3-10.2 4.4-18.9 13-18.9zM146.983 339c-9 .3-13.9-8-13.6-18.2.3-13.9 4.6-18.9 11.6-19.2 9.6-.3 11.3 8 11.9 18.2.4 10.2-2.9 18.8-9.9 19.2zM251.383 227.6c10.6 0 15.6-9.9 13.9-21.9-2.3-15.9-7.6-21.9-15.6-21.5-11.3.3-12.3 9.6-11.6 21.5.4 12.3 5 21.9 13.3 21.9zM150.283 259.7c10.6 0 15.9-6.3 14.6-16.2-2-13.3-7.3-20.2-15.6-20.2-6.6 0-12.3 9-12.3 18.2.4 8 2 18.2 13.3 18.2zM184.083 259.7c-9.3 0-14.3-7.6-13.6-16.9 1-12.3 5.3-16.9 12.6-16.6 9.9 0 11.3 7.6 11.6 16.6.7 9.6-3.3 16.9-10.6 16.9zM115.183 288.3c10.9.3 16.6-6 15.9-16.2-1.3-13.9-6.6-21.2-14.9-21.2-7 0-13.3 9-13.3 18.2-.3 8.2.7 18.8 12.3 19.2zM286.883 245.5c-9.3 0-14.3-8.3-13.6-18.2.7-13.6 5-18.2 12.3-18.2 9.6.3 11.3 8.3 11.9 18.2 0 9.9-3.3 18.2-10.6 18.2zM118.483 240.5c-8 .3-12.3-5.6-11.9-15.6.3-13.6 4-20.6 10.3-20.9 5-.3 9.9 8.6 10.3 17.6.2 8-.1 18.6-8.7 18.9zM219.583 220.3c-9 .3-13.9-7.6-13.6-17.6.3-13.3 4.3-18.6 11.3-18.6 9.3-.3 11.3 7.6 11.9 17.6.3 10-2.6 18.3-9.6 18.6zM213.583 226.3c10.3 0 15.6 7.3 14.9 19.2-1 15.9-5.6 24.2-13.6 24.2-6.6 0-12.6-10.9-12.9-21.5 0-9.7.7-21.9 11.6-21.9zM185.783 295.2c-9.3 0-14.3-6.6-13.6-14.9 1-10.9 5.3-14.9 12.6-14.9 9.9 0 11.3 6.6 11.6 14.9.3 8.3-3.3 14.9-10.6 14.9zM154.283 295.9c-9 .3-13.9-6-13.6-13.6.7-10.3 4.6-14.3 11.6-14.3 9.6-.3 11.3 6 11.6 13.6.3 8-3 14.3-9.6 14.3zM266.683 268c-1.3-12.6 3.3-19.6 10.3-18.6 9.3 1 13.3 7 14.3 16.9 1.3 13.6-3.6 15.6-10.6 16.2-7.1.1-13-4.9-14-14.5zM249.383 258.1c-7 .3-10.9-3.6-10.6-10.3.3-9 3.3-13.6 9-13.6 4.3 0 8.6 5.6 9.3 11.6 0 5-.4 12-7.7 12.3zM216.583 304.5c-9 .3-13.9-6-13.6-13.6.3-10.3 4.6-14.3 11.3-14.6 9.6-.3 11.3 6 11.9 13.6.7 8-2.6 14.3-9.6 14.6z" fill="#0db591"/></svg>
