<svg xmlns="http://www.w3.org/2000/svg" xmlns:xlink="http://www.w3.org/1999/xlink" viewBox="1 74.1 609.3 628.6"><path style="fill:#fff" d="M19.2 591.6H1v-14.9h52.4v14.9H35.1v95.5H19.2v-95.5zM60.3 576.7h25.5c18.6 0 27.8 10.9 27.8 32.5 0 6.3-1 11.9-3 16.6-2 4.6-5.6 8.3-10.6 10.9l16.9 50.4H100L85.5 640h-9.3v47.1H60.3V576.7zm16 49.4h9c2.7 0 5-.3 6.6-1.3 1.7-.7 3-2 3.6-3.3 1-1.3 1.3-3.3 1.7-5.3s.3-4.6.3-7.3 0-5.3-.3-7.3-1-4-2-5.3c-1-1.7-2.3-2.7-4-3.3-1.7-.7-4-1-7-1h-8v34.1zM243.7 608.5h-15.9v-3.6c0-3.6-1-6.6-2.7-9.3s-4.6-4-8.6-4c-2.3 0-4 .3-5.3 1.3-1.3 1-2.3 2-3.3 3.3-.7 1.3-1.3 2.7-1.7 4.6-.3 1.7-.3 3.6-.3 5.3 0 2.3 0 4 .3 5.6.3 1.7.7 2.7 1.3 4 .7 1 1.7 2 2.7 3 1.3 1 2.7 1.7 5 2.3l12.3 5c3.6 1.3 6.3 3 8.6 4.6 2.3 1.7 4 4 5 6.3 1.3 2.3 2 5.3 2.3 8.3.3 3.3.7 6.6.7 10.9 0 4.6-.3 9-1.3 12.9-1 4-2.3 7.3-4.6 10.3-2 3-5 5-8.6 6.6-3.6 1.7-8 2.3-12.9 2.3-4 0-7.3-.7-10.6-2s-6.3-3.3-8.6-5.6-4.3-5-5.6-8.3c-1.3-3.3-2-6.6-2-10.3v-6h15.9v5c0 3 1 5.6 2.7 8s4.6 3.6 8.6 3.6c2.7 0 4.6-.3 6.3-1.3 1.7-.7 2.7-2 3.3-3.3.7-1.3 1.3-3 1.3-5.3.3-2 .3-4.3.3-7 0-3 0-5.3-.3-7.3s-.7-3.3-1.3-4.6c-.7-1-1.7-2-2.7-2.7-1.3-.7-2.7-1.7-4.6-2.3l-11.3-4.6c-7-2.7-11.3-6.6-13.6-10.9-2.3-4.6-3.6-10.3-3.6-17.2 0-4 .7-8 1.7-11.9 1-3.6 2.7-7 5-9.6 2.3-2.7 5-5 8.6-6.3 3.3-1.7 7.3-2.3 11.9-2.3 4 0 7.6.7 10.9 2.3 3.3 1.3 6 3.3 8.3 5.6 2.3 2.3 4 5 5.3 8s2 6 2 9v7.6h-.9zM265.9 591.6h-18.2v-14.9H300v14.9h-18.2v95.5h-15.9v-95.5zM307 576.7h25.5c18.6 0 27.8 10.9 27.8 32.5 0 6.3-1 11.9-3 16.6-2 4.6-5.6 8.3-10.6 10.9l16.9 50.4h-16.9L332.2 640h-9.6v47.1h-15.9V576.7h.3zm15.9 49.4h9c2.7 0 5-.3 6.6-1.3 1.7-.7 3-2 3.6-3.3 1-1.3 1.3-3.3 1.7-5.3s.3-4.6.3-7.3 0-5.3-.3-7.3-1-4-2-5.3c-1-1.7-2.3-2.7-4-3.3-1.7-.7-4-1-7-1h-8.3v34.1h.4zM372.3 602.9c0-4.3.7-8.3 2.3-11.9 1.7-3.3 3.6-6.3 6-8.6 2.7-2.3 5.3-4 8.6-5s6.3-1.7 9.6-1.7 6.3.7 9.6 1.7 6 3 8.6 5c2.7 2.3 4.6 5 6 8.6 1.7 3.3 2.3 7.3 2.3 11.9v58.3c0 4.6-.7 8.6-2.3 11.9-1.7 3.3-3.6 6.3-6 8.3-2.7 2.3-5.3 4-8.6 5s-6.3 1.7-9.6 1.7-6.3-.7-9.6-1.7-6-2.7-8.6-5c-2.7-2.3-4.6-5-6-8.3-1.7-3.3-2.3-7.3-2.3-11.9v-58.3zm15.6 58.3c0 4 1 6.6 3.3 8.6s4.6 2.7 7.6 2.7 5.3-1 7.6-2.7c2-1.7 3.3-4.6 3.3-8.6v-58.3c0-4-1-6.6-3.3-8.6-2-1.7-4.6-2.7-7.6-2.7s-5.3 1-7.6 2.7c-2.3 1.7-3.3 4.6-3.3 8.6v58.3zM438.3 602.9c0-4.3.7-8.3 2.3-11.9 1.7-3.3 3.6-6.3 6-8.6 2.7-2.3 5.3-4 8.6-5s6.3-1.7 9.6-1.7 6.3.7 9.6 1.7 6 3 8.6 5c2.7 2.3 4.6 5 6 8.6 1.7 3.3 2.3 7.3 2.3 11.9v58.3c0 4.6-.7 8.6-2.3 11.9-1.7 3.3-3.6 6.3-6 8.3-2.7 2.3-5.3 4-8.6 5s-6.3 1.7-9.6 1.7-6.3-.7-9.6-1.7-6-2.7-8.6-5-4.6-5-6-8.3c-1.7-3.3-2.3-7.3-2.3-11.9v-58.3zm15.9 58.3c0 4 1 6.6 3.3 8.6s4.6 2.7 7.6 2.7 5.3-1 7.6-2.7c2-1.7 3.3-4.6 3.3-8.6v-58.3c0-4-1-6.6-3.3-8.6-2-1.7-4.6-2.7-7.6-2.7s-5.3 1-7.6 2.7c-2.3 1.7-3.3 4.6-3.3 8.6v58.3zM513.9 591.6h-18.2v-14.9H548v14.9h-18.2v95.5h-15.9v-95.5zM606 608.5h-15.9v-3.6c0-3.6-1-6.6-2.7-9.3s-4.6-4-8.6-4c-2.3 0-4 .3-5.3 1.3-1.3 1-2.3 2-3.3 3.3-.7 1.3-1.3 2.7-1.7 4.6-.3 1.7-.3 3.6-.3 5.3 0 2.3 0 4 .3 5.6 0 1.7.7 2.7 1.3 4 .7 1 1.7 2 2.7 3 1.3 1 2.7 1.7 5 2.3l12.3 5c3.6 1.3 6.3 3 8.6 4.6 2.3 1.7 4 4 5 6.3 1.3 2.3 2 5.3 2.3 8.3.3 3.3.7 6.6.7 10.9 0 4.6-.3 9-1.3 12.9-1 4-2.3 7.3-4.6 10.3-2 3-5 5-8.6 6.6-3.6 1.7-8 2.3-12.9 2.3-4 0-7.3-.7-10.6-2s-6.3-3.3-8.6-5.6-4.3-5-5.6-8.3c-1.3-3.3-2-6.6-2-10.3v-6h15.9v5c0 3 1 5.6 2.7 8 1.7 2.3 4.6 3.6 8.6 3.6 2.7 0 4.6-.3 6.3-1.3 1.7-1 2.7-2 3.3-3.3.7-1.3 1.3-3 1.3-5.3.3-2 .3-4.3.3-7 0-3 0-5.3-.3-7.3s-.7-3.3-1.3-4.6c-.7-1-1.7-2-2.7-2.7-1.3-.7-2.7-1.7-4.6-2.3l-11.3-4.6c-7-2.7-11.3-6.6-13.6-10.9s-3.6-10.3-3.6-17.2c0-4 .7-8 1.7-11.9 1-3.6 2.7-7 5-9.6 2.3-2.7 5-5 8.6-6.3 3.3-1.7 7.3-2.3 11.9-2.3 4 0 7.6.7 10.9 2.3 3.3 1.3 6 3.3 8.3 5.6s4 5 5.3 8c1.3 3 2 6 2 9v7.6h-.9zM1.3 702.7V695h609v7.6H1.3z"/><defs><path id="a" d="M332.9 492.1c0 24.2 52.4 20.2 45.4 28.5-1 1.3-3.6 4.3-13.3 3.6-7.6-.3-26.9-10.6-33.5-11.3-15.6-1.3-36.5 20.6-53 24.5-13.3 2-19.9.7-19.2-3.6 1-6.3 31.8-5.3 35.5-26.9-6.6 3.6-30.8 9.9-33.5 3.3-5.6-13.6 39.5.7 30.8-28.8"/></defs><use xlink:href="#a" overflow="visible" fill="#fff"/><defs><path id="b" d="M312.3 417.9c13.9 0 28.5-7 27.8 15.6-1 24.5 2 46.1 2.3 57 0 24.2 43.1 19.9 36.1 28.2-1 1.3-3.6 4.3-13.3 3.6-7.6-.3-26.9-9.6-33.5-10.3-15.6-1.3-36.5 19.6-53 23.9-13.3 2-19.9.7-19.2-3.6 1-6.3 31.8-5.3 35.5-26.9-6.6 3.6-30.8 9.9-33.5 3.3-4.3-10.6 16.9-5.6 21.2-15.9 3-7.3.3-29.2.3-64.3-.5-10 5.1-10.6 29.3-10.6z"/></defs><use xlink:href="#b" overflow="visible" fill="#fff"/><path d="M172.1 374.1c10.9 0 16.6 9.9 15.6 22.2-1.3 16.6-6.3 22.5-14.9 22.5-11.6-.3-13.3-9.9-13.3-22.5-.4-12.2 3.9-22.2 12.6-22.2zM209.5 392c10.9 0 16.6 7.6 15.9 19.9-1.3 16.6-6.3 25.2-14.9 24.9-7 0-13.3-11.3-13.3-22.5-.3-9.7.7-22.3 12.3-22.3zM269.2 120.5c11.6 0 17.2-10.6 15.6-23.2-2.3-16.9-8-23.2-16.9-23.2-12.3.3-13.6 10.3-13.3 23.2.3 12.9 5.6 23.2 14.6 23.2zM200.2 149.3c-11.9 0-17.9-10.6-16.9-23.5 1.3-17.2 7-23.5 15.9-23.2 12.6.3 14.3 10.3 14.6 23.2s-4.3 23.5-13.6 23.5zM118.4 298.9c-11.9 0-18.6-8.3-17.2-21.9 1.7-17.9 7.6-27.2 16.9-27.2 7.6 0 14.3 12.3 14.6 24.2-.1 10.9-1.4 24.9-14.3 24.9zM234.1 125.8c10.3 0 15.3-8.3 13.9-18.6-1.7-13.6-7-18.6-14.9-18.6-10.9.3-11.9 8.6-11.9 18.6.3 10.3 4.9 18.6 12.9 18.6zM252 456.3c10.3 0 15.3-7.6 13.9-20.2-2-16.6-7.3-25.2-15.3-24.9-6.6 0-11.9 11.3-11.6 22.5.4 9.7 1.7 22.6 13 22.6zM140.6 358.9c-8-.3-12.6 4.6-11.9 12.6 1 10.9 4.6 16.9 10.9 17.2 5.3 0 9.9-7 9.9-14.6.7-6.3 0-14.9-8.9-15.2zM450.2 148.3c10.6 0 16.2 9.6 15.9 20.9-.7 15.6-5.3 21.2-13.6 21.2-11.3-.3-12.9-9.6-13.6-21.2-1-11.2 3-20.9 11.3-20.9zM304 76.1c10.3 0 15.9 7 15.3 18.2-1 15.3-6 23.2-13.9 22.9-6.6 0-12.9-10.3-13.3-20.6 0-8.9.6-20.5 11.9-20.5zM282.5 219.3c11.9 0 17.2-10.9 15.6-23.9-2.3-17.6-8-23.9-17.2-23.9-12.3.3-13.6 10.6-13.3 23.9.6 13.3 5.6 23.9 14.9 23.9zM242.7 176.5c10.6 0 16.2 7 15.3 18.2-1 15.3-6.3 22.9-14.3 22.9-6.6 0-12.9-10.3-13.3-20.6 0-8.9 1-20.5 12.3-20.5zM480.1 227.3c9.9 0 14.6-7.3 12.9-18.9-2.3-15.6-7.6-23.5-15.3-23.5-6.3 0-11.3 10.6-10.6 21.2.4 8.9 2.3 21.2 13 21.2zM419.7 160.3c-11.3-.3-16.9-11.3-15.9-24.2 1.3-17.2 6.6-23.2 15.3-22.9 11.6.7 13.3 10.9 13.6 23.9.3 13.2-4.4 23.5-13 23.2zM462.1 256.4c-9-.3-13.3 5-12.3 13.6 1.3 11.9 6 17.9 12.9 18.2 5.6 0 10.3-7.6 10.3-15.6-.2-6.6-1.6-15.8-10.9-16.2zM347.8 263.7c-9-.3-13.3 4.3-12.6 11.9 1.3 10.3 5.6 15.9 12.3 15.9 5.6 0 10.6-6.6 10.6-13.6.3-5.9-.7-13.8-10.3-14.2zM120 350.9c9.9.3 15.3-8.6 14.6-19.6-1-14.9-5.6-20.6-13.3-20.9-10.6-.3-12.3 8.6-12.6 19.6-.3 11.3 3.7 20.6 11.3 20.9zM449.6 294.2c11.9 0 18.9 8.3 18.2 21.9-.7 18.2-6.3 27.8-15.6 27.5-7.6 0-15.3-12.3-15.9-24.9-.7-10.6 0-24.5 13.3-24.5zM493.3 280c11.6 0 16.6-9.9 14.9-21.5-2.7-15.9-8.6-21.5-17.2-21.5-12.3.3-13.3 9.6-12.3 21.5.4 11.9 5.7 21.5 14.6 21.5zM373.3 458c12.3-.7 17.6-12.3 15.3-26.2-3.3-18.6-9.6-25.2-19.2-24.5-12.9.7-13.6 11.9-12.6 25.9.9 13.9 6.9 25.1 16.5 24.8zM451.9 404.6c12.3-.7 17.9-9.3 15.3-23.2-3.3-18.2-10.3-27.5-19.6-27.2-7.6.3-13.3 12.9-12.3 25.5.7 11.3 3.3 25.6 16.6 24.9zM480.7 343.6c8.6-.3 13.6 4.6 13.3 12.6-.3 10.9-4 16.9-10.6 16.9-5.6 0-10.9-7-11.6-14.6-.7-6.3-.4-14.5 8.9-14.9zM499.3 331c-10.6.3-16.9-8.6-16.6-19.6 0-14.9 4.6-20.6 12.9-20.6 11.3-.3 13.6 8.6 14.6 19.6 1 11.3-2.6 20.3-10.9 20.6zM418.7 431.1c-12.3.7-18.9-6.3-18.6-17.9.3-15.3 5.6-23.5 15.3-23.9 7.6-.3 15.3 9.9 16.2 20.2.4 9.4 0 21.3-12.9 21.6zM416.7 283.6c9 0 13.9 7.3 13.6 19.6-.3 16.2-4.6 24.5-11.3 24.2-5.6 0-11.3-10.9-11.6-21.9-.9-9.3-.3-21.9 9.3-21.9zM377.9 98.6c11.6 0 17.9 9.6 17.2 21.2-1 15.6-6.3 21.5-15.3 21.2-12.3-.3-14.3-9.6-14.9-21.2-.2-11.9 4.1-21.2 13-21.2zM177.4 166.3c-10.9-1-17.2 9.9-16.9 23.9.3 18.6 5 25.9 13.6 26.5 11.6.7 13.9-10.3 14.9-24.2.6-14-3.3-25.6-11.6-26.2zM135.3 156.3c-10.9 0-16.6 8.3-15.6 21.5 1.7 17.9 7.3 27.2 15.9 27.2 7 0 13.3-12.3 12.9-24.5 0-10.3-1.3-24.2-13.2-24.2zM448.6 210c10.6 0 16.2 9 15.6 20.2-.7 14.9-5.3 20.2-13.6 20.2-11.3-.3-12.9-9-13.6-20.2-.4-11.2 3.6-20.2 11.6-20.2zM160.8 121.8c11.6 0 17.9 6.6 16.6 17.6-1.3 14.6-7.3 22.2-16.2 22.2-7.6 0-13.9-9.9-14.3-19.9.3-8.6 1.3-19.9 13.9-19.9zM338.2 402.6c10.9 0 15.9-10.3 14.3-22.9-2.3-16.9-7.6-22.9-15.9-22.9-11.3.3-12.6 10.3-11.9 22.9.2 12.7 5.2 22.9 13.5 22.9zM265.9 402.6c10.9 0 16.2-8 14.6-20.2-2-16.9-7.6-25.5-15.9-25.2-7 0-12.6 11.3-12.3 22.9.3 9.6 2 22.5 13.6 22.5zM303 409.9c-9.6 0-14.6-9.3-13.9-20.6 1-14.9 5.3-20.6 12.6-20.6 10.3.3 11.6 9.3 11.9 20.6.7 11.3-3 20.6-10.6 20.6zM379.6 393c-11.9 0-18.6-9-17.9-22.9 1-18.9 6.6-28.5 15.9-28.5 7.6 0 14.9 12.9 15.6 25.5 0 11-.7 25.9-13.6 25.9zM189.6 375.4c11.3 0 16.6-11.6 15.3-25.5-2-18.6-7.3-25.5-15.9-25.2-11.6.3-12.9 11.3-12.9 25.2.3 13.9 4.9 25.5 13.5 25.5zM148.2 257.1c10.9 0 16.6-7.6 15.3-19.9-1.7-16.6-7.3-24.9-15.6-24.9-7 0-12.9 11.3-12.6 22.2-.4 9.7 1 22.6 12.9 22.6zM351.4 145c8.3 0 12.9 5 12.3 12.9-.7 10.6-4.6 16.2-11.3 15.9-5.3 0-10.3-7.3-10.6-14.6 0-6.2.7-14.2 9.6-14.2zM388.6 202.1c-10.6 0-16.2-10.6-15.6-23.2.7-16.9 5.6-23.2 13.6-22.9 10.9.3 12.9 10.3 13.6 22.9.3 12.9-3.4 23.2-11.6 23.2zM244 168.9c-11.6 0-17.9-6.6-16.9-17.2 1.3-14.3 7-21.5 15.9-21.5 7.3 0 14.3 9.6 14.3 19.2.6 8.6-.7 19.5-13.3 19.5zM227.8 386.7c10.9.7 16.9-8 15.9-22.2-1.3-18.9-6.6-28.8-15.3-28.8-7-.3-13.3 11.9-13.3 24.9-.3 11.2 1.1 25.8 12.7 26.1zM343.1 131.4c-10.9-.3-16.9-9-15.6-21.9 1.7-17.6 7-26.2 15.6-25.9 7 .3 13.3 12.6 13.3 24.2 0 10.7-1.3 24.3-13.3 23.6zM350.8 297.5c-11.9 0-17.6 11.3-15.9 24.5 2.3 18.2 8.3 24.9 17.6 24.9 12.6-.3 13.9-11.3 13.3-24.9-.5-13.5-6.1-24.5-15-24.5z" fill="#fff"/><path d="M420.4 227.9c11.9 0 18.6 10.9 17.9 24.2-.7 17.9-6.3 24.5-15.6 24.2-12.6-.3-14.9-10.9-15.6-24.2-.3-13.2 4.3-24.2 13.3-24.2zM386.2 289.6c-10.6 0-15.6 9-13.9 20.2 2 14.9 7.6 20.2 15.6 20.2 11.3-.3 12.3-9 11.6-20.2 0-11.3-5-20.2-13.3-20.2zM315 349.9c-10.9 0-16.6-6.3-15.9-16.6 1-13.6 6.3-20.9 14.6-20.6 7 0 13.3 9.3 13.6 18.6.2 8-.7 18.6-12.3 18.6zM184.7 225.9c9.9.3 14.9 10.3 13.6 22.2-1.7 15.9-6.6 21.5-14.3 20.9-10.6-.7-11.6-10.3-11.6-22.2.3-11.9 4.6-21.2 12.3-20.9zM217.2 325.7c-9.3 0-14.3-6.6-13.3-14.9 1-10.9 5.6-14.9 12.6-14.9 9.9 0 11.3 6.6 11.6 14.9.3 8.3-3.7 14.9-10.9 14.9zM278.8 299.2c11.3.7 17.2 9.3 15.9 23.2-1.7 18.6-7.3 28.2-16.2 27.5-7.3-.3-13.6-13.3-13.3-26.2 0-10.6 1.3-24.8 13.6-24.5zM152.5 267c-8.6-.3-12.9 4.6-12.3 12.6 1 10.9 5 16.9 11.6 17.2 5.6 0 10.3-7 10.6-14.6 0-6.2-.9-14.8-9.9-15.2zM112.7 243.5c10.6.3 15.9-8.6 15.3-19.6-1-14.9-6-20.6-13.9-20.6-10.9-.3-12.6 8.6-12.9 19.6-.4 11 3.6 20.3 11.5 20.6zM153.5 347.6c10.9.7 16.9-6.3 15.9-17.9-1.3-15.3-6.6-23.5-14.9-23.9-7-.3-13.3 9.6-13.6 20.2 0 9.3 1 21.3 12.6 21.6zM411.4 377.1c10.9 0 15.9-10.3 13.9-22.9-2.3-16.6-8-22.9-16.2-22.5-11.3.3-12.3 9.9-11.9 22.5 1 12.6 5.9 22.9 14.2 22.9zM421.4 217c10.6 0 15.6-7.3 13.9-19.2-2.3-15.9-8-24.2-16.2-23.9-6.6 0-11.9 10.9-11.6 21.5.6 9 2.3 21.6 13.9 21.6zM207.2 154.6c9.9 0 15.3 7.3 14.3 19.2-1 15.9-6 24.2-13.6 23.9-6.3 0-11.9-10.9-12.3-21.5 0-9.3.7-21.6 11.6-21.6zM317.9 129.1c-10.9.4-15.9 11.6-13.9 24.9 3 17.9 8.6 24.2 17.2 23.5 11.6-.7 12.6-11.6 11.6-24.9-.9-13.2-6.2-23.8-14.9-23.5zM187 314.4c-8 .3-12.6-5.6-11.9-15.9.7-13.6 4.3-20.9 10.3-21.2 5-.3 9.9 8.6 10.3 17.9.6 8-.1 18.9-8.7 19.2zM278.5 126.1c11.3 0 17.2 8.6 16.2 18.9-1.3 13.9-6.6 19.2-15.3 18.9-11.9-.3-13.6-8.6-13.9-18.9-.3-10.2 4.4-18.9 13-18.9zM247 339c-9 .3-13.9-8-13.6-18.2.3-13.9 4.6-18.9 11.6-19.2 9.6-.3 11.3 8 11.9 18.2.4 10.2-2.9 18.8-9.9 19.2zM351.4 227.6c10.6 0 15.6-9.9 13.9-21.9-2.3-15.9-7.6-21.9-15.6-21.5-11.3.3-12.3 9.6-11.6 21.5.4 12.3 5 21.9 13.3 21.9zM250.3 259.7c10.6 0 15.9-6.3 14.6-16.2-2-13.3-7.3-20.2-15.6-20.2-6.6 0-12.3 9-12.3 18.2.4 8 2 18.2 13.3 18.2zM284.1 259.7c-9.3 0-14.3-7.6-13.6-16.9 1-12.3 5.3-16.9 12.6-16.6 9.9 0 11.3 7.6 11.6 16.6.7 9.6-3.3 16.9-10.6 16.9zM215.2 288.3c10.9.3 16.6-6 15.9-16.2-1.3-13.9-6.6-21.2-14.9-21.2-7 0-13.3 9-13.3 18.2-.3 8.2.7 18.8 12.3 19.2zM386.9 245.5c-9.3 0-14.3-8.3-13.6-18.2.7-13.6 5-18.2 12.3-18.2 9.6.3 11.3 8.3 11.9 18.2 0 9.9-3.3 18.2-10.6 18.2zM218.5 240.5c-8 .3-12.3-5.6-11.9-15.6.3-13.6 4-20.6 10.3-20.9 5-.3 9.9 8.6 10.3 17.6.2 8-.1 18.6-8.7 18.9zM319.6 220.3c-9 .3-13.9-7.6-13.6-17.6.3-13.3 4.3-18.6 11.3-18.6 9.3-.3 11.3 7.6 11.9 17.6.3 10-2.6 18.3-9.6 18.6zM313.6 226.3c10.3 0 15.6 7.3 14.9 19.2-1 15.9-5.6 24.2-13.6 24.2-6.6 0-12.6-10.9-12.9-21.5 0-9.7.7-21.9 11.6-21.9zM285.8 295.2c-9.3 0-14.3-6.6-13.6-14.9 1-10.9 5.3-14.9 12.6-14.9 9.9 0 11.3 6.6 11.6 14.9.3 8.3-3.3 14.9-10.6 14.9zM254.3 295.9c-9 .3-13.9-6-13.6-13.6.7-10.3 4.6-14.3 11.6-14.3 9.6-.3 11.3 6 11.6 13.6.3 8-3 14.3-9.6 14.3zM366.7 268c-1.3-12.6 3.3-19.6 10.3-18.6 9.3 1 13.3 7 14.3 16.9 1.3 13.6-3.6 15.6-10.6 16.2-7.1.1-13-4.9-14-14.5zM349.4 258.1c-7 .3-10.9-3.6-10.6-10.3.3-9 3.3-13.6 9-13.6 4.3 0 8.6 5.6 9.3 11.6 0 5-.4 12-7.7 12.3zM316.6 304.5c-9 .3-13.9-6-13.6-13.6.3-10.3 4.6-14.3 11.3-14.6 9.6-.3 11.3 6 11.9 13.6.7 8-2.6 14.3-9.6 14.6z" fill="#fff"/><g><path style="fill:#fff" d="M177.6 662.5c0 3.6-.7 7-2 10.1-1.4 3.1-3.2 5.8-5.5 8.2-2.3 2.3-5.1 4.2-8.2 5.5-3.1 1.4-6.4 2-10 2-3.5 0-6.9-.7-10-2-3.1-1.4-5.8-3.2-8.2-5.5-2.3-2.3-4.2-5.1-5.5-8.2-1.4-3.1-2-6.5-2-10.1v-86.1H142v84.5c0 4 .9 6.9 2.8 8.7 1.9 1.9 4.2 2.8 7 2.8s5.1-.9 7-2.8c1.9-1.9 2.8-4.8 2.8-8.7v-84.5h15.9v86.1z"/></g></svg>
