<svg xmlns="http://www.w3.org/2000/svg" viewBox="-2.8 74.1 757.02153 138.01396"><path style="fill:#fff" d="M324.822 175.607c0 3.6-.7 7-2 10.1-1.4 3.1-3.2 5.8-5.5 8.2-2.3 2.3-5.1 4.2-8.2 5.5-3.1 1.4-6.4 2-10 2-3.5 0-6.9-.7-10-2-3.1-1.4-5.8-3.2-8.2-5.5-2.3-2.3-4.2-5.1-5.5-8.2-1.4-3.1-2-6.5-2-10.1v-86.1h15.9v84.5c0 4 .9 6.9 2.8 8.7 1.9 1.8 4.2 2.8 7 2.8s5.1-.9 7-2.8c1.9-1.9 2.8-4.8 2.8-8.7v-84.5h15.9v86.1zm428.5-54h-15.9v-3.6c0-3.6-1-6.6-2.7-9.3-1.7-2.7-4.6-4-8.6-4-2.3 0-4 .3-5.3 1.3-1.3 1-2.3 2-3.3 3.3-.7 1.3-1.3 2.7-1.7 4.6-.3 1.7-.3 3.6-.3 5.3 0 2.3 0 4 .3 5.6 0 1.7.7 2.7 1.3 4 .7 1 1.7 2 2.7 3 1.3 1 2.7 1.7 5 2.3l12.3 5c3.6 1.3 6.3 3 8.6 4.6 2.3 1.7 4 4 5 6.3 1.3 2.3 2 5.3 2.3 8.3.3 3.3.7 6.6.7 10.9 0 4.6-.3 9-1.3 12.9-1 4-2.3 7.3-4.6 10.3-2 3-5 5-8.6 6.6-3.6 1.7-8 2.3-12.9 2.3-4 0-7.3-.7-10.6-2s-6.3-3.3-8.6-5.6-4.3-5-5.6-8.3c-1.3-3.3-2-6.6-2-10.3v-6h15.9v5c0 3 1 5.6 2.7 8 1.7 2.3 4.6 3.6 8.6 3.6 2.7 0 4.6-.3 6.3-1.3 1.7-1 2.7-2 3.3-3.3.7-1.3 1.3-3 1.3-5.3.3-2 .3-4.3.3-7 0-3 0-5.3-.3-7.3s-.7-3.3-1.3-4.6c-.7-1-1.7-2-2.7-2.7-1.3-.7-2.7-1.7-4.6-2.3l-11.3-4.6c-7-2.7-11.3-6.6-13.6-10.9-2.3-4.3-3.6-10.3-3.6-17.2 0-4 .7-8 1.7-11.9 1-3.6 2.7-7 5-9.6 2.3-2.7 5-5 8.6-6.3 3.3-1.7 7.3-2.3 11.9-2.3 4 0 7.6.7 10.9 2.3 3.3 1.3 6 3.3 8.3 5.6 2.3 2.3 4 5 5.3 8 1.3 3 2 6 2 9v7.6h-.9zm-92.2-16.9h-18.2v-14.9h52.4v14.9h-18.3v95.5h-15.9v-95.5zm-75.6 11.3c0-4.3.7-8.3 2.3-11.9 1.7-3.3 3.6-6.3 6-8.6 2.7-2.3 5.3-4 8.6-5s6.3-1.7 9.6-1.7 6.3.7 9.6 1.7 6 3 8.6 5c2.7 2.3 4.6 5 6 8.6 1.7 3.3 2.3 7.3 2.3 11.9v58.3c0 4.6-.7 8.6-2.3 11.9-1.7 3.3-3.6 6.3-6 8.3-2.7 2.3-5.3 4-8.6 5s-6.3 1.7-9.6 1.7-6.3-.7-9.6-1.7-6-2.7-8.6-5c-2.6-2.3-4.6-5-6-8.3-1.7-3.3-2.3-7.3-2.3-11.9v-58.3zm15.9 58.3c0 4 1 6.6 3.3 8.6s4.6 2.7 7.6 2.7 5.3-1 7.6-2.7c2-1.7 3.3-4.6 3.3-8.6v-58.3c0-4-1-6.6-3.3-8.6-2-1.7-4.6-2.7-7.6-2.7s-5.3 1-7.6 2.7c-2.3 1.7-3.3 4.6-3.3 8.6v58.3zm-81.9-58.3c0-4.3.7-8.3 2.3-11.9 1.7-3.3 3.6-6.3 6-8.6 2.7-2.3 5.3-4 8.6-5s6.3-1.7 9.6-1.7 6.3.7 9.6 1.7 6 3 8.6 5c2.7 2.3 4.6 5 6 8.6 1.7 3.3 2.3 7.3 2.3 11.9v58.3c0 4.6-.7 8.6-2.3 11.9-1.7 3.3-3.6 6.3-6 8.3-2.7 2.3-5.3 4-8.6 5s-6.3 1.7-9.6 1.7-6.3-.7-9.6-1.7-6-2.7-8.6-5c-2.7-2.3-4.6-5-6-8.3-1.7-3.3-2.3-7.3-2.3-11.9v-58.3zm15.6 58.3c0 4 1 6.6 3.3 8.6s4.6 2.7 7.6 2.7 5.3-1 7.6-2.7c2-1.7 3.3-4.6 3.3-8.6v-58.3c0-4-1-6.6-3.3-8.6-2-1.7-4.6-2.7-7.6-2.7s-5.3 1-7.6 2.7c-2.3 1.7-3.3 4.6-3.3 8.6v58.3zm-80.9-84.5h25.5c18.6 0 27.8 10.9 27.8 32.5 0 6.3-1 11.9-3 16.6-2 4.6-5.6 8.3-10.6 10.9l16.9 50.4h-16.8l-14.6-47.1h-9.6v47.1h-15.9v-110.4h.3zm15.9 49.4h9c2.7 0 5-.3 6.6-1.3 1.7-.7 3-2 3.6-3.3 1-1.3 1.3-3.3 1.7-5.3.4-2 .3-4.6.3-7.3s0-5.3-.3-7.3-1-4-2-5.3c-1-1.7-2.3-2.7-4-3.3-1.7-.7-4-1-7-1h-8.3v34.1h.4zm-57-34.5h-18.2v-14.9h52.4v14.9h-18.3v95.5h-15.9v-95.5zm-22.2 16.9h-15.9v-3.6c0-3.6-1-6.6-2.7-9.3-1.7-2.7-4.6-4-8.6-4-2.3 0-4 .3-5.3 1.3-1.3 1-2.3 2-3.3 3.3-.7 1.3-1.3 2.7-1.7 4.6-.3 1.7-.3 3.6-.3 5.3 0 2.3 0 4 .3 5.6.3 1.7.7 2.7 1.3 4 .7 1 1.7 2 2.7 3 1.3 1 2.7 1.7 5 2.3l12.3 5c3.6 1.3 6.3 3 8.6 4.6 2.3 1.7 4 4 5 6.3 1.3 2.3 2 5.3 2.3 8.3.3 3.3.7 6.6.7 10.9 0 4.6-.3 9-1.3 12.9-1 4-2.3 7.3-4.6 10.3-2 3-5 5-8.6 6.6-3.6 1.6-8 2.3-12.9 2.3-4 0-7.3-.7-10.6-2s-6.3-3.3-8.6-5.6-4.3-5-5.6-8.3c-1.3-3.3-2-6.6-2-10.3v-6h15.9v5c0 3 1 5.6 2.7 8 1.7 2.4 4.6 3.6 8.6 3.6 2.7 0 4.6-.3 6.3-1.3 1.7-.7 2.7-2 3.3-3.3.7-1.3 1.3-3 1.3-5.3.3-2 .3-4.3.3-7 0-3 0-5.3-.3-7.3s-.7-3.3-1.3-4.6c-.7-1-1.7-2-2.7-2.7-1.3-.7-2.7-1.7-4.6-2.3l-11.3-4.6c-7-2.7-11.3-6.6-13.6-10.9-2.3-4.6-3.6-10.3-3.6-17.2 0-4 .7-8 1.7-11.9 1-3.6 2.7-7 5-9.6 2.3-2.7 5-5 8.6-6.3 3.3-1.7 7.3-2.3 11.9-2.3 4 0 7.6.7 10.9 2.3 3.3 1.3 6 3.3 8.3 5.6 2.3 2.3 4 5 5.3 8 1.3 3 2 6 2 9v7.6h-.9zm-183.3-31.8h25.5c18.6 0 27.8 10.9 27.8 32.5 0 6.3-1 11.9-3 16.6-2 4.6-5.6 8.3-10.6 10.9l16.9 50.4h-16.8l-14.6-47.1h-9.3v47.1h-15.9v-110.4zm15.9 49.4h9c2.7 0 5-.3 6.6-1.3 1.7-.7 3-2 3.6-3.3 1-1.3 1.3-3.3 1.7-5.3.3-2 .3-4.6.3-7.3s0-5.3-.3-7.3-1-4-2-5.3c-1-1.7-2.3-2.7-4-3.3-1.7-.7-4-1-7-1h-8v34.1zm-57-34.5h-18.3v-14.9h52.4v14.9h-18.2v95.5h-15.9v-95.5zM61.294 142.6c-2.676.088-4.133-1.785-4.043-4.044.09-3.063 1.368-4.252 3.36-4.34 2.854-.09 3.36 1.783 3.538 4.042.208 2.38-.773 4.252-2.854 4.34zm9.78-13.796c-2.08.09-3.24-1.07-3.15-3.062.09-2.676.98-4.044 2.676-4.044 1.278 0 2.556 1.665 2.764 3.45-.03 1.486-.118 3.567-2.29 3.656zm5.115 2.943c-.388-3.746.98-5.827 3.06-5.53 2.766.298 3.955 2.082 4.253 5.025.386 4.043-1.07 4.638-3.152 4.816-2.08.03-3.864-1.457-4.16-4.31zm-33.418 8.295c-2.676.09-4.133-1.784-4.044-4.043.21-3.063 1.368-4.253 3.45-4.253 2.853-.09 3.36 1.784 3.448 4.044.12 2.38-.862 4.252-2.854 4.252zm9.365-.208c-2.765 0-4.252-1.962-4.043-4.43.297-3.24 1.575-4.43 3.746-4.43 2.943 0 3.36 1.963 3.448 4.43.12 2.468-.98 4.43-3.15 4.43zm8.295-20.484c3.062 0 4.638 2.17 4.43 5.708-.298 4.727-1.665 7.195-4.044 7.195-1.962 0-3.746-3.24-3.835-6.392 0-2.883.178-6.51 3.45-6.51zm1.754-1.784c-2.676.09-4.133-2.26-4.044-5.233.09-3.954 1.28-5.53 3.36-5.53 2.765-.09 3.36 2.26 3.538 5.233.12 2.973-.773 5.44-2.854 5.53zm-30.058 6.005c-2.378.09-3.657-1.663-3.538-4.636.09-4.044 1.19-6.125 3.063-6.214 1.486-.09 2.943 2.557 3.062 5.232.09 2.38-.03 5.53-2.587 5.62zm50.066 1.488c-2.765 0-4.25-2.468-4.043-5.41.21-4.044 1.488-5.412 3.658-5.412 2.854.09 3.36 2.468 3.538 5.41 0 2.944-.98 5.412-3.152 5.412zm-51.047 12.725c3.24.09 4.935-1.784 4.727-4.817-.386-4.132-1.962-6.303-4.43-6.303-2.08 0-3.954 2.676-3.954 5.41-.09 2.44.208 5.59 3.657 5.71zm20.514-8.503c-2.764 0-4.25-2.26-4.042-5.025.297-3.657 1.576-5.024 3.746-4.935 2.943 0 3.36 2.26 3.45 4.935.177 2.854-.982 5.025-3.153 5.025zm-10.077 0c3.15 0 4.727-1.873 4.34-4.817-.594-3.954-2.17-6.005-4.638-6.005-1.962 0-3.657 2.676-3.657 5.41.12 2.38.625 5.412 3.955 5.412zm30.087-9.544c3.15 0 4.638-2.943 4.132-6.51-.683-4.728-2.26-6.512-4.638-6.393-3.36.09-3.656 2.854-3.448 6.392.09 3.657 1.486 6.51 3.954 6.51zm-31.068 33.12c-2.676.09-4.133-2.378-4.044-5.41.09-4.134 1.368-5.62 3.45-5.71 2.853-.088 3.358 2.38 3.537 5.412.12 3.032-.862 5.59-2.943 5.708zm9.365-63.296c3.36 0 5.113 2.557 4.816 5.62-.387 4.13-1.962 5.707-4.55 5.618-3.537-.09-4.042-2.557-4.13-5.62-.06-3.032 1.307-5.618 3.864-5.618zm-27.204 55.982c-2.378.09-3.746-1.665-3.538-4.727.208-4.043 1.28-6.214 3.063-6.303 1.486-.09 2.943 2.557 3.062 5.322.178 2.378-.03 5.62-2.587 5.708zm38.947-55.09c-3.24.09-4.727 3.448-4.132 7.403.892 5.32 2.556 7.194 5.113 6.986 3.45-.207 3.747-3.447 3.45-7.402-.297-3.924-1.873-7.075-4.43-6.986zm-32.94 7.58c2.942 0 4.548 2.17 4.25 5.71-.297 4.726-1.784 7.194-4.043 7.105-1.873 0-3.538-3.24-3.657-6.392 0-2.765.208-6.422 3.45-6.422zm63.68 18.553c3.153 0 4.64-2.17 4.134-5.708-.684-4.728-2.38-7.195-4.816-7.106-1.963 0-3.538 3.242-3.45 6.393.21 2.676.685 6.422 4.133 6.422zm-2.942 47.598c3.24 0 4.727-3.062 4.133-6.808-.683-4.935-2.378-6.808-4.816-6.69-3.36.09-3.657 2.944-3.538 6.69.268 3.746 1.754 6.808 4.222 6.808zm-76.704-8.77c3.24.208 5.024-1.873 4.727-5.322-.386-4.548-1.962-6.986-4.43-7.105-2.08-.09-3.953 2.855-4.042 6.006 0 2.766.297 6.334 3.746 6.423zm-12.1-30.95c3.15.09 4.726-2.556 4.548-5.827-.297-4.43-1.784-6.124-4.133-6.124-3.24-.09-3.747 2.557-3.836 5.827-.148 3.27 1.04 6.034 3.42 6.123zm11.802 6.987c-2.557-.09-3.835 1.368-3.657 3.746.297 3.24 1.486 5.025 3.448 5.114 1.665 0 3.062-2.08 3.152-4.34.03-1.844-.268-4.4-2.944-4.52zm37.58 9.573c3.36.208 5.113 2.765 4.727 6.898-.506 5.53-2.17 8.385-4.817 8.177-2.17-.09-4.043-3.955-3.954-7.79 0-3.15.387-7.373 4.044-7.284zm-18.344 7.88c-2.765 0-4.252-1.963-3.954-4.43.297-3.242 1.665-4.43 3.746-4.43 2.943 0 3.36 1.96 3.448 4.43.12 2.467-1.07 4.43-3.24 4.43zM22.08 119.23c2.943.09 4.43 3.063 4.043 6.6-.506 4.728-1.962 6.393-4.252 6.215-3.15-.208-3.447-3.063-3.447-6.6.12-3.538 1.397-6.303 3.656-6.214zm38.738 36.867c-3.24 0-4.935-1.873-4.727-4.936.298-4.042 1.874-6.212 4.342-6.123 2.08 0 3.954 2.765 4.043 5.53.09 2.378-.208 5.53-3.657 5.53zm21.198-17.928c-3.15 0-4.638 2.675-4.133 6.005.595 4.43 2.26 6.005 4.638 6.005 3.36-.09 3.658-2.676 3.45-6.005-.03-3.36-1.486-6.006-3.954-6.006zm10.138-18.345c3.538 0 5.53 3.24 5.322 7.195-.208 5.322-1.873 7.284-4.638 7.195-3.746-.09-4.43-3.24-4.638-7.195-.09-3.924 1.308-7.195 3.954-7.195zm-20.692 20.693c-3.538 0-5.233 3.36-4.727 7.284.683 5.41 2.467 7.403 5.232 7.403 3.746-.09 4.133-3.36 3.954-7.403-.118-4.014-1.812-7.284-4.458-7.284zm-2.26-49.382c-3.24-.09-5.024-2.676-4.638-6.51.506-5.234 2.08-7.79 4.638-7.702 2.08.09 3.954 3.746 3.954 7.195-.03 3.18-.416 7.224-3.954 7.016zm-34.31 75.9c3.242.21 5.026-2.377 4.728-6.6-.386-5.618-1.962-8.56-4.548-8.56-2.08-.09-3.955 3.537-3.955 7.402-.06 3.33.328 7.67 3.776 7.76zm4.818-64.752c-3.45 0-5.322-1.962-5.025-5.113.387-4.25 2.08-6.39 4.727-6.39 2.17 0 4.252 2.853 4.252 5.707.208 2.557-.208 5.797-3.954 5.797zm42.99 9.87c-3.152 0-4.817-3.15-4.638-6.896.208-5.025 1.665-6.898 4.043-6.81 3.24.09 3.835 3.063 4.044 6.81.088 3.835-.983 6.897-3.45 6.897zM71.67 95.18c2.467 0 3.835 1.485 3.657 3.834-.208 3.152-1.368 4.816-3.36 4.727-1.576 0-3.062-2.17-3.15-4.34-.03-1.843.177-4.22 2.853-4.22zm-60.442 33.327c3.24 0 4.935-2.26 4.55-5.917-.507-4.935-2.172-7.403-4.64-7.403-2.08 0-3.835 3.36-3.745 6.6-.09 2.884.297 6.72 3.835 6.72zm12.338 35.17c3.36 0 4.935-3.448 4.55-7.58-.596-5.53-2.172-7.582-4.728-7.493-3.45.09-3.836 3.36-3.836 7.493.06 4.132 1.457 7.58 4.014 7.58zm56.458 5.233c-3.538 0-5.53-2.675-5.322-6.808.298-5.62 1.963-8.473 4.727-8.473 2.26 0 4.43 3.834 4.637 7.58 0 3.27-.178 7.7-4.043 7.7zm-22.744 5.025c-2.854 0-4.34-2.765-4.132-6.125.297-4.43 1.575-6.124 3.746-6.124 3.062.09 3.45 2.765 3.538 6.124.178 3.36-.892 6.125-3.152 6.125zm-11.06-2.17c3.24 0 4.817-2.38 4.34-6.006-.593-5.025-2.258-7.582-4.726-7.493-2.08 0-3.746 3.36-3.657 6.808.12 2.854.595 6.69 4.044 6.69zm21.496 0c3.24 0 4.727-3.063 4.25-6.81-.683-5.023-2.258-6.807-4.726-6.807-3.36.09-3.746 3.062-3.538 6.808.06 3.776 1.546 6.81 4.014 6.81zM14.974 88.28c3.45 0 5.322 1.964 4.935 5.234-.387 4.34-2.17 6.6-4.817 6.6-2.26 0-4.133-2.943-4.252-5.916.09-2.557.388-5.917 4.134-5.917zm85.564 26.224c3.152 0 4.816 2.675 4.638 6.005-.208 4.43-1.576 6.005-4.043 6.005-3.36-.09-3.836-2.676-4.044-6.006-.09-3.33 1.07-6.006 3.448-6.006zM7.393 98.538c-3.24 0-4.936 2.468-4.638 6.392.505 5.322 2.17 8.087 4.727 8.087 2.08 0 3.954-3.657 3.835-7.284.03-3.062-.386-7.195-3.924-7.195zm12.516 2.973c-3.242-.296-5.115 2.945-5.025 7.107.09 5.53 1.486 7.7 4.043 7.88 3.45.207 4.133-3.064 4.43-7.196.208-4.16-.98-7.61-3.45-7.79zm59.638-20.126c3.45 0 5.322 2.854 5.114 6.303-.297 4.638-1.873 6.392-4.55 6.303-3.656-.09-4.25-2.854-4.43-6.303-.088-3.538 1.19-6.303 3.866-6.303zm11.536 55c2.676 0 4.132 2.172 4.043 5.828-.09 4.817-1.367 7.284-3.36 7.195-1.664 0-3.36-3.24-3.448-6.51-.298-2.766-.09-6.512 2.764-6.512zm.594 43.854c-3.656.208-5.62-1.873-5.53-5.322.09-4.55 1.665-6.987 4.55-7.106 2.26-.09 4.548 2.944 4.816 6.006.09 2.795 0 6.333-3.836 6.422zm23.933-29.76c-3.15.09-5.023-2.557-4.934-5.828 0-4.43 1.368-6.124 3.835-6.124 3.36-.09 4.045 2.557 4.342 5.827.327 3.36-.773 6.035-3.24 6.125zm-5.5 3.746c2.558-.09 4.045 1.367 3.955 3.746-.09 3.24-1.19 5.024-3.15 5.024-1.666 0-3.242-2.08-3.45-4.34-.238-1.874-.12-4.312 2.646-4.43zm-8.59 18.135c3.656-.21 5.32-2.766 4.548-6.898-.98-5.41-3.062-8.176-5.827-8.087-2.26.09-3.953 3.835-3.656 7.58.208 3.36 1.01 7.612 4.935 7.404zm-23.37 15.875c3.658-.208 5.234-3.657 4.55-7.79-.98-5.53-2.854-7.49-5.708-7.283-3.836.208-4.044 3.538-3.746 7.7.297 4.133 2.05 7.462 4.905 7.373zm35.707-52.92c3.45 0 4.936-2.943 4.43-6.392-.803-4.727-2.557-6.392-5.113-6.392-3.657.09-3.955 2.855-3.657 6.393.09 3.538 1.665 6.392 4.34 6.392zm-13.022 4.222c3.538 0 5.62 2.467 5.41 6.51-.207 5.412-1.872 8.266-4.637 8.177-2.26 0-4.548-3.657-4.727-7.403-.177-3.15 0-7.283 3.955-7.283zm-97.96 16.857c2.942.09 4.547-2.557 4.34-5.827-.298-4.43-1.666-6.125-3.955-6.214-3.15-.09-3.657 2.557-3.746 5.827-.09 3.36 1.07 6.125 3.36 6.214zM70.57 130.47c-2.676-.09-3.954 1.277-3.746 3.537.386 3.062 1.665 4.727 3.657 4.727 1.666 0 3.152-1.962 3.152-4.043.09-1.753-.208-4.102-3.062-4.22zm34.01-2.17c-2.674-.09-3.953 1.485-3.655 4.042.386 3.538 1.783 5.322 3.835 5.41 1.665 0 3.062-2.26 3.062-4.637-.09-1.962-.476-4.697-3.24-4.816zM91.977 99.727c-3.36-.09-5.054-3.36-4.757-7.195.385-5.114 1.96-6.898 4.548-6.808 3.448.208 3.954 3.24 4.043 7.105.09 3.925-1.277 6.987-3.834 6.898zm17.927 19.92c2.943 0 4.34-2.17 3.835-5.62-.683-4.638-2.26-6.987-4.548-6.987-1.873 0-3.36 3.153-3.152 6.304.12 2.646.714 6.303 3.865 6.303zm-70.58-15.104c3.152 0 4.816 2.08 4.55 5.41-.298 4.55-1.874 6.81-4.253 6.81-1.962 0-3.835-3.063-3.954-6.125.03-2.647.298-6.096 3.657-6.096zm11.833 12.725c3.538 0 5.113-3.242 4.638-7.107-.684-5.233-2.38-7.106-5.114-7.106-3.657.09-4.043 3.152-3.954 7.106.178 3.954 1.665 7.106 4.43 7.106zm6.422-42.575c3.062 0 4.727 2.08 4.548 5.41-.297 4.55-1.783 6.898-4.132 6.81-1.962 0-3.835-3.063-3.954-6.126-.03-2.647.178-6.095 3.538-6.095zm43.466 21.465c3.15 0 4.816 2.854 4.727 6.214-.207 4.638-1.575 6.303-4.043 6.303-3.36-.09-3.835-2.855-4.043-6.303-.297-3.33.892-6.214 3.36-6.214zM8.968 158.772c-2.378-.09-3.746 1.368-3.538 3.746.298 3.24 1.368 5.025 3.24 5.114 1.577 0 2.944-2.08 2.944-4.34.208-1.874.03-4.43-2.646-4.52zm33.12 28.958c3.062 0 4.55-2.26 4.133-6.006-.594-4.935-2.17-7.492-4.548-7.403-1.962 0-3.538 3.36-3.45 6.69.12 2.885.506 6.72 3.866 6.72zm-5.322-98.26c3.063 0 4.55-2.467 4.133-5.53-.507-4.043-2.082-5.53-4.43-5.53-3.242.09-3.54 2.558-3.54 5.53.09 3.063 1.458 5.53 3.836 5.53zM2.368 140.935c-3.538 0-5.53-2.468-5.113-6.51.505-5.323 2.26-8.088 5.024-8.088 2.258 0 4.25 3.657 4.34 7.195 0 3.242-.417 7.404-4.252 7.404zm24.35-44.477c-3.54 0-5.322-3.15-5.025-6.986.386-5.113 2.08-6.986 4.727-6.897 3.746.09 4.252 3.062 4.34 6.898.09 3.836-1.278 6.987-4.043 6.987zM47.2 87.895c3.448 0 5.113-3.152 4.638-6.898-.684-5.024-2.38-6.897-5.025-6.897-3.657.09-4.043 3.062-3.954 6.897.12 3.836 1.696 6.898 4.342 6.898zm-17.72 80.718c3.24 0 4.936 2.26 4.727 5.916-.387 4.935-1.874 7.492-4.43 7.402-2.082 0-3.955-3.36-3.955-6.69-.09-2.883.21-6.63 3.657-6.63zm-11.15-5.322c3.242 0 4.937 2.945 4.64 6.6-.387 4.937-1.874 6.69-4.43 6.69-3.45-.088-3.955-2.942-3.955-6.69-.09-3.626 1.19-6.6 3.746-6.6zm41.683 13.023c4.133 0 8.474-2.08 8.266 4.638-.297 7.285.595 13.707.684 16.948 0 7.194 12.814 5.916 10.733 8.384-.297.386-1.07 1.278-3.954 1.07-2.26-.09-7.998-2.854-9.96-3.062-4.638-.387-10.85 5.827-15.757 7.105-3.954.595-5.916.208-5.708-1.07.297-1.873 9.454-1.576 10.554-7.998-1.962 1.07-9.157 2.944-9.96.982-1.278-3.153 5.025-1.666 6.303-4.73.892-2.17.09-8.68.09-19.115-.15-2.973 1.516-3.152 8.71-3.152zm6.125 22.06c0 7.195 15.58 6.006 13.498 8.473-.298.387-1.07 1.28-3.955 1.07-2.26-.088-7.997-3.15-9.96-3.36-4.637-.385-10.85 6.126-15.756 7.285-3.955.596-5.917.21-5.71-1.07.3-1.872 9.456-1.575 10.556-7.997-1.963 1.07-9.157 2.944-9.96.98-1.665-4.042 11.743.21 9.157-8.56"/></svg>
