<svg xmlns="http://www.w3.org/2000/svg" viewBox="-2.8 74.1 609.3 628.6"><path style="fill:#fff" d="M251.044 76.38c-16.535.405-18.28 13.848-17.875 31.19.536 17.34 7.66 31.186 19.624 31.186 15.593 0 23.12-14.25 20.968-31.187-3.09-22.72-10.754-31.19-22.718-31.19zm48.656 2.69c-15.19 0-16.134 15.597-16 27.56.538 13.847 9.003 27.69 17.875 27.69 10.62.402 17.343-10.215 18.687-30.782.807-15.056-6.716-24.47-20.562-24.47zm51.5 10.093c-10.93.333-17.692 11.892-19.906 34.812-1.748 17.34 6.316 29.034 20.968 29.438 15.997.94 17.74-17.336 17.875-31.72 0-15.593-8.465-32.127-17.875-32.53-.36-.013-.71-.01-1.062 0zM204.262 95.88c-14.652.405-16 11.56-16 25 .404 13.847 6.59 25 17.344 25 13.846 0 20.57-11.153 18.688-25-2.286-18.28-9.412-25-20.032-25zm194.782 13.44c-12.1 0-17.872 12.502-17.47 28.5.808 15.592 3.467 28.095 20 28.5 12.1.402 19.25-7.53 20.595-28.5.94-15.595-7.533-28.5-23.126-28.5zM157.7 114.693c-11.328.152-18.557 8.788-20.25 31.187-1.344 17.342 6.722 31.595 22.72 31.595 12.5 0 18.683-14.253 18.28-31.594-.403-17.34-2.687-30.783-19.625-31.186-.374-.013-.76-.005-1.125 0zm295.5 14.25c-11.052.128-17.776 8.382-19.47 30.78-1.343 17.342 6.31 32.13 21.5 32.532 11.562.404 17.748-13.443 17.345-31.187-.403-17.477-2.688-31.185-18.28-32.126-.367-.013-.738-.004-1.095 0zm-346.125 11.562c-16.938 0-18.284 15.19-18.688 26.75.538 13.443 9.003 26.75 19.22 26.75 11.963 0 20.033-10.217 21.78-29.844 1.748-14.786-6.72-23.656-22.312-23.656zm158.22 5.78c-11.562 0-17.77 11.696-17.5 25.408.402 13.846 2.69 25.003 18.686 25.406 11.696.403 18.816-6.72 20.564-25.406 1.344-13.846-6.56-25.406-21.75-25.406zm53.092 4.033c-14.652.402-21.376 15.59-18.687 33.468 4.033 24.062 11.564 32.534 23.125 31.593 15.593-.94 16.938-15.59 15.594-33.468-1.346-17.744-8.472-31.997-20.033-31.593zm-100.812 1.468c-11.964 0-19.627 9.683-21.375 28.906-1.344 14.25 7.125 23.125 22.72 23.125 16.936 0 18.815-14.66 17.874-26.22 0-12.905-9.406-25.813-19.22-25.813zm145.844 19.906c-12.1 0-13.042 10.76-12.908 19.094.404 9.813 7.126 19.624 14.25 19.624 9.007.404 14.247-7.125 15.188-21.375.807-10.62-5.374-17.343-16.53-17.343zm132.81 4.437c-11.156 0-16.53 13.04-15.186 28.095.94 15.593 3.09 28.097 18.28 28.5 11.158 0 17.34-7.53 18.282-28.5.404-15.19-7.126-28.094-21.375-28.094zm-326.78 8.47c-14.652 0-15.594 16.53-15.594 29.03.538 14.25 8.063 28.907 16.53 28.907 10.218.404 16.938-10.75 18.283-32.125 1.343-15.996-5.912-25.812-19.22-25.812zm240.156 1.875c-10.164.152-16.37 8.773-17.28 30.78-.808 16.94 6.72 31.19 20.968 31.19 11.157 0 15.997-13.848 15.593-31.19-.94-16.936-3.628-30.377-18.28-30.78-.337-.013-.673-.005-1 0zm-336.812.406c-14.653 0-22.313 11.163-20.97 28.907C54.11 239.85 61.64 252.35 73.2 252.35c9.41 0 17.85-16.537 17.312-32.938.135-13.845-1.722-32.53-17.718-32.53zm53.906 13.376c-13.002.57-20.41 14.544-20.03 32.188.402 25.003 6.72 34.818 18.28 35.625 15.593.94 18.687-13.847 20.03-32.532.942-18.82-4.435-34.413-15.593-35.22-.915-.083-1.82-.1-2.687-.062zm141.812 7.063c-16.534.402-18.278 14.245-17.875 32.124.807 17.878 7.53 32.125 20.032 32.125 15.995 0 23.118-14.65 20.967-32.126-3.09-23.66-10.757-32.125-23.125-32.125zm185.782 3.218c-8.872 0-15.997 14.657-15.594 28.906.94 12.098 3.094 29.03 18.687 29.03 14.25 0 20.973-9.815 18.688-25.81-3.092-21.375-10.758-32.53-21.78-32.126zm-237.125 3.5c-15.19 0-16.398 15.598-16.533 27.562.538 13.846 9.003 27.688 17.875 27.688 10.755 0 17.875-10.214 19.22-30.782 1.21-15.056-6.314-24.468-20.563-24.468zm100.28 10.218c-9.41 0-14.784 7.122-15.188 25-.403 13.443 6.183 24.06 18.282 23.656 9.41-.403 13.444-11.557 12.906-25-.807-13.442-3.498-24.06-16-23.656zm44.687.094c-.328 0-.663.014-1 .03-15.19.404-16.534 12.91-15.593 28.907.403 16.535 6.717 29.438 17.875 29.438 14.248 0 20.97-13.306 18.686-29.438-2.995-20.705-9.77-28.933-19.97-28.937zm170.938.97c-8.47 0-15.19 14.25-14.25 28.5.538 11.963 3.22 28.5 17.47 28.5 13.307 0 19.628-9.814 17.342-25.408-3.09-20.97-10.21-31.593-20.562-31.593zm-490 24.75c-13.456.348-15.61 12.018-16 26.342-.672 14.787 4.715 27.285 15.47 27.688 14.248.403 21.368-11.557 20.56-26.344-1.343-20.03-8.067-27.687-18.686-27.687-.46-.014-.91-.013-1.345 0zm139.406.936c-8.468.404-13.44 9.812-13.843 28.094-.537 13.443 5.246 21.372 16 20.97 11.56-.405 12.09-14.653 11.688-25.407-.538-12.1-7.122-24.06-13.844-23.657zm226.782 6.844c-9.813 0-15.59 6.187-16.53 24.47-.942 13.307 5.78 24.468 18.28 24.468 9.814 0 14.25-11.16 14.25-24.47-.806-13.307-3.095-24.065-16-24.468zm84.688 1.22c-10.754 0-15.997 12.1-15.594 27.155.94 15.056 3.09 26.753 18.28 27.156 11.16 0 17.342-7.125 18.283-27.155.805-15.056-6.72-27.156-20.97-27.156zm-404.22 3.093c-9.41 0-17.34 15.19-16.936 29.843-.404 13.04 1.347 30.375 17.343 30.375 14.653 0 22.31-10.214 20.563-26.75-2.285-22.314-9.81-33.467-20.97-33.467zm136.314 14.78c-8.872 0-16.563 12.102-16.563 24.47.54 10.754 2.852 24.468 17.907 24.468 14.25 0 21.373-8.472 19.625-21.78-2.688-17.88-9.81-27.156-20.968-27.156zm-87.813 3.5c-9.627.383-15.04 12.598-15.56 28.095 0 15.996 1.343 28.902 15.592 29.843 10.35.808 16.934-6.72 19.22-28.092 1.747-15.997-4.974-29.44-18.282-29.844-.32-.013-.658-.013-.97 0zm131.564.407c-8.726.408-13.865 6.81-15.125 22.313-.942 12.5 5.778 22.718 18.28 22.718 9.813 0 15.057-9.813 14.25-22.717-.403-12.1-2.286-22.313-15.594-22.313-.613-.025-1.23-.027-1.812 0zm42.812.125c-14.787 0-15.594 16.398-15.594 29.438.404 14.25 8.472 28.906 17.344 28.906 10.754 0 16.937-11.16 18.28-32.532.942-15.997-6.184-25.813-20.03-25.813zm143.438 2.156c-11.964 0-18.28 14.788-17.875 32.533.94 17.878 4.03 32.127 20.967 32.53 12.502.404 20.028-8.468 20.97-32.53.94-17.88-8.067-32.532-24.063-32.532zm-97.47 8.47c-7.66 0-11.69 6.183-12.093 18.28-.402 9.008 4.84 14.248 14.25 13.845 9.814-.403 10.21-9.81 10.345-16.53-.94-8.067-6.72-15.595-12.5-15.595zm192.5 3.75c-16.533.403-17.875 12.91-16.53 28.906.403 15.997 7.526 28.907 19.625 28.907 15.592 0 22.315-13.313 20.03-28.907-3.63-21.374-11.564-28.906-23.125-28.906zm-155.093 16.563c-8.425-.012-13.762 9.245-12.124 25.125 1.345 12.904 9.403 19.634 18.813 19.5 9.41-.807 15.996-3.5 14.25-21.782-1.346-13.308-6.718-21.374-19.22-22.718-.588-.084-1.157-.125-1.72-.125zm-346.31.656c-12.503 0-20.435 12.5-22.72 36.56-1.882 18.283 7.128 29.44 23.125 29.44 17.34 0 19.22-18.818 19.22-33.47-.405-15.997-9.41-32.53-19.626-32.53zm131.874 1.468c-9.41 0-17.875 12.1-17.875 24.468-.405 11.023.937 25.275 16.53 25.813 14.652.402 22.316-8.07 21.375-21.782-1.748-18.686-8.874-28.5-20.03-28.5zm328.5 7.406c-10.6.493-15.604 7.443-14.344 18.28 1.748 15.998 8.068 24.066 17.344 24.47 7.528 0 13.843-10.215 13.843-20.97-.403-8.87-2.154-21.243-14.656-21.78-.755-.025-1.48-.033-2.186 0zm-153.813 9.812c-10.6.385-15.6 6.422-14.718 16 1.748 13.846 7.525 21.375 16.532 21.375 7.528 0 14.25-8.87 14.25-18.28.403-7.93-.94-18.556-13.844-19.094-.756-.025-1.512-.025-2.22 0zm-82.468 2.282c-9.813 0-15.593 5.378-16.937 20.03-.94 11.158 5.78 20.032 18.28 20.032 9.814 0 14.79-8.874 14.25-20.03-.402-11.16-2.284-20.032-15.593-20.032zm-179.968 2.156c-10.158.43-15.194 6.855-14.438 16.937 1.345 14.654 6.722 22.723 15.594 23.126 7.528 0 13.847-9.408 14.25-19.625.134-8.333-1.183-19.9-13.28-20.436-.724-.025-1.45-.03-2.126 0zm136.28 1.344c-9.41 0-14.652 5.372-15.593 19.218-.402 10.217 6.184 18.685 18.282 18.282 9.007 0 13.444-8.465 12.907-19.22-.405-10.216-2.69-18.684-15.595-18.28zm83.345 11.156c-9.008.403-14.785 5.78-15.19 19.625-.402 10.215 6.184 18.683 18.282 18.28 9.41-.403 13.848-8.87 12.907-19.625-.808-10.216-3.096-18.685-16-18.28zm-173.283 1.344c-8.065.403-12.902 10.218-13.843 28.5-.94 13.845 5.246 21.778 16 21.375 11.56-.404 12.494-15.06 11.687-25.813-.536-12.502-7.12-24.466-13.843-24.063zm311.063 8.468c-12.905 0-13.844 16.936-12.5 29.438.403 14.787 8.066 29.437 15.594 29.437 9.006.405 14.784-10.753 15.187-32.53.405-16.534-6.182-26.344-18.28-26.344zm-41 8.063c-14.25 0-20.973 12.1-18.688 27.155 2.69 20.03 10.215 27.156 20.97 27.156 15.19-.402 16.534-12.1 15.593-27.155-.134-15.19-6.718-27.156-17.875-27.156zm146.906 1.624c-11.157 0-17.312 7.658-17.312 27.687-.404 14.788 8.063 26.748 22.312 26.345 11.158-.403 16.135-12.497 14.656-27.688-1.344-14.786-4.466-26.747-19.656-26.343zm-61.812 4.562c-17.88 0-18.682 18.69-17.875 32.938.805 16.937 11.157 33.47 21.374 33.47 12.5.402 20.028-12.505 20.968-36.97.94-18.282-8.472-29.438-24.468-29.438zm-313.344 2.282c-9.41 0-15.593 5.378-16.938 20.03-1.344 11.158 5.374 20.032 17.875 20.032 9.814 0 15.194-8.874 14.657-20.03-.404-11.16-2.286-20.032-15.594-20.032zm180.53 2.156c-15.995 0-23.66 15.193-21.374 32.937 3.092 24.467 11.155 33.47 23.656 33.47 16.938-.403 18.682-15.187 17.875-33.47-.537-18.146-8.192-32.936-20.156-32.936zm-96.655 2.28c-16.534-.402-18.28 18.69-18.28 32.94-.405 17.34 8.06 34.814 17.874 35.217 11.963.942 19.495-11.964 21.78-36.967 1.748-18.686-6.185-30.247-21.375-31.188zm-45.563 3.22c-9.41.403-15.19 7.127-15.593 25.812-.405 13.712 6.182 24.872 18.28 24.47 9.41-.54 13.82-12.102 13.28-25.813-.805-13.712-3.063-24.873-15.968-24.47zM97.7 387.85c-9.052.427-16.984 13.352-17.375 27.156 0 12.502 1.344 28.628 16.937 29.032 14.653.94 22.72-8.47 21.375-24.063-1.747-20.567-8.873-31.587-20.03-32.125-.295-.013-.615-.014-.907 0zm-44.906 6.188c-13.09.35-15.235 12.018-15.625 26.343-.405 15.19 4.835 27.692 15.186 28.095 13.308.403 20.566-11.557 19.625-26.344-1.343-20.028-7.523-27.69-17.874-28.092-.445-.013-.89-.012-1.312 0zm258.78 3.093c-10.562.227-17.29 9.978-18.593 27.69-.94 13.845 6.724 22.31 21.376 22.31 15.594 0 16.935-14.245 16.53-25-.402-12.5-8.87-25-18.28-25-.348-.01-.69-.006-1.03 0zm-166.468 16.126c-15.593.404-17.344 15.19-17.344 33.875.27 18.687 6.596 34.283 18.157 34.283 15.19 0 22.31-15.596 20.56-34.282-2.687-25.002-9.813-34.277-21.374-33.874zm296.906 9.375c-.337 0-.686.016-1.03.032-15.19.404-16.538 13.313-16 30.25 1.21 16.938 7.936 30.782 19.093 30.782 14.652 0 21.376-13.844 18.687-30.782-2.995-21.617-10.276-30.252-20.75-30.28zM197.92 428.04c-9.41-.404-17.876 15.993-17.876 33.468-.27 15.056 1.5 34.69 17.093 35.094 14.653.94 22.72-10.755 21.375-29.844-1.747-25.406-8.898-38.718-20.593-38.718zm200.592 7.937c-12.5 0-20.03 12.906-21.375 38.313-.94 18.685 8.066 30.78 24.063 30.78 17.475 0 18.28-20.025 18.28-34.812-.94-16.937-10.75-34.28-20.968-34.28zm138.72 2.688c-12.502.537-13.045 11.562-11.97 20.03.94 10.217 8.066 19.626 15.594 19.626 8.872 0 13.847-8.068 14.25-22.72.404-10.754-6.314-17.34-17.875-16.938zm-44.626 14.25c-10.216.403-17.875 17.343-16.53 34.28.94 15.19 4.567 34.41 22.31 33.47 16.536-.94 24.06-12.503 20.564-31.188-4.436-24.466-13.842-36.966-26.344-36.563zm-149.22 3.5c-15.19.403-16.94 13.843-16 30.78.27 17.073 7 30.782 18.158 30.782 14.652 0 21.37-13.844 19.218-30.78-3.09-22.72-10.217-30.782-21.375-30.782zm-96.78.53c-9.41 0-16.934 15.19-16.53 30.782.537 12.905 2.687 30.25 18.28 30.25 14.653 0 21.776-10.756 19.625-27.156-2.687-22.72-10.216-34.28-21.374-33.876zM77.95 459.226c-9.537.43-14.913 6.856-14.03 16.938 1.343 14.652 6.186 22.72 14.655 23.125 7.125 0 13.312-9.41 13.312-19.625.94-8.47.13-20.035-11.968-20.438-.673-.025-1.334-.03-1.97 0zm218.656 13.188c-9.813 0-15.593 7.657-16.937 27.687-.942 15.19 5.78 27.688 18.686 27.688 10.217 0 15.057-12.498 14.25-27.688-.403-15.19-2.154-27.284-16-27.688zm-174.344 7.25c-11.56 0-17.34 13.443-16.937 29.843 0 16.938 2.282 29.847 17.875 30.25 11.56 0 18.284-7.935 20.03-30.25 1.346-16.534-6.315-29.843-20.968-29.843zM449.45 500.1c-13.04.538-20.16 11.558-20.563 32.125-.403 15.593 8.466 25.003 25 24.063 17.342-.404 17.748-16.396 17.344-29.032-1.21-13.846-11.564-27.56-21.78-27.156zm-276.78 3.625c-15.595 0-16.936 16.93-16.533 29.97 0 15.055 8.466 30.25 17.875 30.25 11.56.402 18.284-11.155 20.032-33.47.94-16.534-6.723-26.75-21.375-26.75zm216 20.5c-.396.01-.785.033-1.19.063-17.34.94-18.28 15.992-16.936 34.812 1.344 18.685 9.282 33.747 22.187 33.344 16.536-.94 23.656-16.534 20.564-35.22-4.298-24.22-12.392-33.31-24.625-33zm-160.908 5.313c-8.872 0-15.997 15.194-15.593 30.25.536 13.04 2.31 30.375 17.5 30.375 13.845 0 20.568-10.22 18.686-27.157-2.688-22.315-9.84-33.872-20.594-33.468zm103.25 7.625c-6.137.052-13.274 1.375-20.28 1.375-32.532 0-40.08.807-39.407 14.25 0 47.183 3.627 76.624-.406 86.437-5.445 13.04-31.02 7.845-29.158 19.094-.404 1.145-.313 2.563.407 4.31 3.606 8.82 35.74.51 44.842-4.342-6.587 26.84-45.97 25.775-47.28 34.03-.072.44-.074.857-.032 1.25-.118.247-.177.517-.22.782-.94 5.78 7.935 7.532 25.814 4.844 22.18-5.243 50.248-34.685 71.22-32.938 8.87.94 34.845 14.784 45.06 15.188 13.04.94 16.532-3.096 17.876-4.844.947-1.123 1.05-2.063.53-2.906 7.89-10.683-48.81-5.382-48.81-37.563-.404-14.65-4.44-43.69-3.095-76.624.588-18.987-6.833-22.43-17.062-22.343z"/></svg>
